HIERARCHY
ROOT pelvis
{
  OFFSET 0 100 0
  CHANNELS 6 Xposition Yposition Zposition Zrotation Xrotation Yrotation
  JOINT pelvis_right_femur
  {
    OFFSET -10.78128 -3.44521 -0.5502486
    CHANNELS 3 Zrotation Xrotation Yrotation
    JOINT right_femur_tibia
    {
      OFFSET -0.8047443 -44.0398 -0.1307829
      CHANNELS 3 Zrotation Xrotation Yrotation
      JOINT right_tibia_foot
      {
        OFFSET 3.006224 -47.83518 -5
        CHANNELS 3 Zrotation Xrotation Yrotation
        End Site
        {
          OFFSET 0 -5 15
        }
      }
    }
  }
  JOINT pelvis_left_femur
  {
    OFFSET 10.78128 -3.44521 -0.5502486
    CHANNELS 3 Zrotation Xrotation Yrotation
    JOINT left_femur_tibia
    {
      OFFSET 0.8047443 -44.0398 -0.1307829
      CHANNELS 3 Zrotation Xrotation Yrotation
      JOINT left_tibia_foot
      {
        OFFSET -4.370144 -48.10324 -4.275266
        CHANNELS 3 Zrotation Xrotation Yrotation
        End Site
        {
          OFFSET 0 -5 15
        }
      }
    }
  }
  JOINT pelvis_spine1
  {
    OFFSET 0 6.468898 -3.129235
    CHANNELS 3 Zrotation Xrotation Yrotation
    JOINT spine1
    {
      OFFSET 0 23.15396 4.99043
      CHANNELS 3 Zrotation Xrotation Yrotation
      JOINT spine2
      {
        OFFSET 0 20.79997 -5.064912
        CHANNELS 3 Zrotation Xrotation Yrotation
        JOINT neck
        {
          OFFSET 0 14.38658 9.616178
          CHANNELS 3 Zrotation Xrotation Yrotation
          End Site
          {
            OFFSET 0 20 0
          }
        }
      }
      JOINT right_manubrium
      {
        OFFSET -5.722621 16.35077 3.967754
        CHANNELS 3 Zrotation Xrotation Yrotation
        JOINT right_clavicle
        {
          OFFSET -13.16364 1.694482 -4.693211
          CHANNELS 3 Zrotation Xrotation Yrotation
          JOINT right_humerus
          {
            OFFSET -28.5034 -0.3100689 -2.792744
            CHANNELS 3 Zrotation Xrotation Yrotation
            JOINT right_radius
            {
              OFFSET -25.15693 0.02248979 -1.271978
              CHANNELS 3 Zrotation Xrotation Yrotation
              End Site
              {
                OFFSET -15 0 0
              }
            }
          }
        }
      }
      JOINT left_manubrium
      {
        OFFSET 5.722621 16.35077 3.967754
        CHANNELS 3 Zrotation Xrotation Yrotation
        JOINT left_clavicle
        {
          OFFSET 13.16364 1.694482 -4.693211
          CHANNELS 3 Zrotation Xrotation Yrotation
          JOINT left_humerus
          {
            OFFSET 29.39168 -1.063119 -2.237045
            CHANNELS 3 Zrotation Xrotation Yrotation
            JOINT left_radius
            {
              OFFSET 24.59957 -0.9528479 0.9047498
              CHANNELS 3 Zrotation Xrotation Yrotation
              End Site
              {
                OFFSET 15 -0 -0
              }
            }
          }
        }
      }
    }
  }
}
MOTION
Frames: 13
Frame Time: 0.0416666666667
-1052.67 95.02697 224.7562 7.786539 6.623887 137.9856 7.778865 7.979246 -2.134608 -0 19.65664 -0 -7.187211 -4.469923 -1.824007 3.837277 -14.40406 -4.144344 -0 25.96849 -0 2.224387 -1.992039 11.3643 3.196938 -7.386342 7.312318 -0.4714196 21.78287 -7.537379 2.936648 19.18152 -1.157319 -1.635221 -18.73662 3.243074 -0.8496862 -33.95659 15.08761 91.31608 5.829651 -12.75542 -0 0 27.84332 -32.71122 24.29347 23.05559 0.8944027 -25.79175 -11.13671 -93.93184 19.15752 33.8914 0 0 -21.4089 -3.043897 18.25262 17.02769
-1049.618 95.04397 220.0556 7.847992 6.550828 137.4499 7.778865 7.979246 -2.134608 -0 19.65664 -0 -7.187211 -4.469923 -1.824007 3.837277 -14.40406 -4.144344 -0 25.96849 -0 2.224387 -1.992039 11.3643 3.196938 -7.386342 7.312318 -0.4714196 21.78287 -7.537379 2.936648 19.18152 -1.157319 -1.635221 -18.73662 3.243074 -0.8496862 -33.95659 15.08761 91.31608 5.829651 -12.75542 -0 0 27.84332 -32.71122 24.29347 23.05559 0.8944027 -25.79175 -11.13671 -93.93184 19.15752 33.8914 0 0 -21.4089 -3.043897 18.25262 17.02769
-1046.523 95.06097 215.3838 7.908746 6.477202 136.9144 7.778865 7.979246 -2.134608 -0 19.65664 -0 -7.187211 -4.469923 -1.824007 3.837277 -14.40406 -4.144344 -0 25.96849 -0 2.224387 -1.992039 11.3643 3.196938 -7.386342 7.312318 -0.4714196 21.78287 -7.537379 2.936648 19.18152 -1.157319 -1.635221 -18.73662 3.243074 -0.8496862 -33.95659 15.08761 91.31608 5.829651 -12.75542 -0 0 27.84332 -32.71122 24.29347 23.05559 0.8944027 -25.79175 -11.13671 -93.93184 19.15752 33.8914 0 0 -21.4089 -3.043897 18.25262 17.02769
-1043.384 95.07798 210.7413 7.968796 6.403015 136.379 7.778865 7.979246 -2.134608 -0 19.65664 -0 -7.187211 -4.469923 -1.824007 3.837277 -14.40406 -4.144344 -0 25.96849 -0 2.224387 -1.992039 11.3643 3.196938 -7.386342 7.312318 -0.4714196 21.78287 -7.537379 2.936648 19.18152 -1.157319 -1.635221 -18.73662 3.243074 -0.8496862 -33.95659 15.08761 91.31608 5.829651 -12.75542 -0 0 27.84332 -32.71122 24.29347 23.05559 0.8944027 -25.79175 -11.13671 -93.93184 19.15752 33.8914 0 0 -21.4089 -3.043897 18.25262 17.02769
-1040.201 95.09498 206.1284 8.028137 6.328273 135.8438 7.778865 7.979246 -2.134608 -0 19.65664 -0 -7.187211 -4.469923 -1.824007 3.837277 -14.40406 -4.144344 -0 25.96849 -0 2.224387 -1.992039 11.3643 3.196938 -7.386342 7.312318 -0.4714196 21.78287 -7.537379 2.936648 19.18152 -1.157319 -1.635221 -18.73662 3.243074 -0.8496862 -33.95659 15.08761 91.31608 5.829651 -12.75542 -0 0 27.84332 -32.71122 24.29347 23.05559 0.8944027 -25.79175 -11.13671 -93.93184 19.15752 33.8914 0 0 -21.4089 -3.043897 18.25262 17.02769
-1036.975 95.11198 201.5455 8.086765 6.252984 135.3088 7.778865 7.979246 -2.134608 -0 19.65664 -0 -7.187211 -4.469923 -1.824007 3.837277 -14.40406 -4.144344 -0 25.96849 -0 2.224387 -1.992039 11.3643 3.196938 -7.386342 7.312318 -0.4714196 21.78287 -7.537379 2.936648 19.18152 -1.157319 -1.635221 -18.73662 3.243074 -0.8496862 -33.95659 15.08761 91.31608 5.829651 -12.75542 -0 0 27.84332 -32.71122 24.29347 23.05559 0.8944027 -25.79175 -11.13671 -93.93184 19.15752 33.8914 0 0 -21.4089 -3.043897 18.25262 17.02769
-1033.707 95.12898 196.9931 8.144674 6.177154 134.7738 7.778865 7.979246 -2.134608 -0 19.65664 -0 -7.187211 -4.469923 -1.824007 3.837277 -14.40406 -4.144344 -0 25.96849 -0 2.224387 -1.992039 11.3643 3.196938 -7.386342 7.312318 -0.4714196 21.78287 -7.537379 2.936648 19.18152 -1.157319 -1.635221 -18.73662 3.243074 -0.8496862 -33.95659 15.08761 91.31608 5.829651 -12.75542 -0 0 27.84332 -32.71122 24.29347 23.05559 0.8944027 -25.79175 -11.13671 -93.93184 19.15752 33.8914 0 0 -21.4089 -3.043897 18.25262 17.02769
-1030.396 95.14599 192.4715 8.201861 6.10079 134.2391 7.778865 7.979246 -2.134608 -0 19.65664 -0 -7.187211 -4.469923 -1.824007 3.837277 -14.40406 -4.144344 -0 25.96849 -0 2.224387 -1.992039 11.3643 3.196938 -7.386342 7.312318 -0.4714196 21.78287 -7.537379 2.936648 19.18152 -1.157319 -1.635221 -18.73662 3.243074 -0.8496862 -33.95659 15.08761 91.31608 5.829651 -12.75542 -0 0 27.84332 -32.71122 24.29347 23.05559 0.8944027 -25.79175 -11.13671 -93.93184 19.15752 33.8914 0 0 -21.4089 -3.043897 18.25262 17.02769
-1027.043 95.16299 187.9812 8.25832 6.023899 133.7045 7.778865 7.979246 -2.134608 -0 19.65664 -0 -7.187211 -4.469923 -1.824007 3.837277 -14.40406 -4.144344 -0 25.96849 -0 2.224387 -1.992039 11.3643 3.196938 -7.386342 7.312318 -0.4714196 21.78287 -7.537379 2.936648 19.18152 -1.157319 -1.635221 -18.73662 3.243074 -0.8496862 -33.95659 15.08761 91.31608 5.829651 -12.75542 -0 0 27.84332 -32.71122 24.29347 23.05559 0.8944027 -25.79175 -11.13671 -93.93184 19.15752 33.8914 0 0 -21.4089 -3.043897 18.25262 17.02769
-1023.648 95.17999 183.5225 8.314048 5.946487 133.1701 7.778865 7.979246 -2.134608 -0 19.65664 -0 -7.187211 -4.469923 -1.824007 3.837277 -14.40406 -4.144344 -0 25.96849 -0 2.224387 -1.992039 11.3643 3.196938 -7.386342 7.312318 -0.4714196 21.78287 -7.537379 2.936648 19.18152 -1.157319 -1.635221 -18.73662 3.243074 -0.8496862 -33.95659 15.08761 91.31608 5.829651 -12.75542 -0 0 27.84332 -32.71122 24.29347 23.05559 0.8944027 -25.79175 -11.13671 -93.93184 19.15752 33.8914 0 0 -21.4089 -3.043897 18.25262 17.02769
-1020.211 95.19699 179.0958 8.36904 5.868562 132.6358 7.778865 7.979246 -2.134608 -0 19.65664 -0 -7.187211 -4.469923 -1.824007 3.837277 -14.40406 -4.144344 -0 25.96849 -0 2.224387 -1.992039 11.3643 3.196938 -7.386342 7.312318 -0.4714196 21.78287 -7.537379 2.936648 19.18152 -1.157319 -1.635221 -18.73662 3.243074 -0.8496862 -33.95659 15.08761 91.31608 5.829651 -12.75542 -0 0 27.84332 -32.71122 24.29347 23.05559 0.8944027 -25.79175 -11.13671 -93.93184 19.15752 33.8914 0 0 -21.4089 -3.043897 18.25262 17.02769
-1016.733 95.214 174.7015 8.423291 5.79013 132.1016 7.778865 7.979246 -2.134608 -0 19.65664 -0 -7.187211 -4.469923 -1.824007 3.837277 -14.40406 -4.144344 -0 25.96849 -0 2.224387 -1.992039 11.3643 3.196938 -7.386342 7.312318 -0.4714196 21.78287 -7.537379 2.936648 19.18152 -1.157319 -1.635221 -18.73662 3.243074 -0.8496862 -33.95659 15.08761 91.31608 5.829651 -12.75542 -0 0 27.84332 -32.71122 24.29347 23.05559 0.8944027 -25.79175 -11.13671 -93.93184 19.15752 33.8914 0 0 -21.4089 -3.043897 18.25262 17.02769
-1013.214 95.231 170.34 8.476797 5.711198 131.5676 7.778865 7.979246 -2.134608 -0 19.65664 -0 -7.187211 -4.469923 -1.824007 3.837277 -14.40406 -4.144344 -0 25.96849 -0 2.224387 -1.992039 11.3643 3.196938 -7.386342 7.312318 -0.4714196 21.78287 -7.537379 2.936648 19.18152 -1.157319 -1.635221 -18.73662 3.243074 -0.8496862 -33.95659 15.08761 91.31608 5.829651 -12.75542 -0 0 27.84332 -32.71122 24.29347 23.05559 0.8944027 -25.79175 -11.13671 -93.93184 19.15752 33.8914 0 0 -21.4089 -3.043897 18.25262 17.02769
